<?xml version="1.0" standalone="no"?>
<!DOCTYPE svg PUBLIC "-//W3C//DTD SVG 20010904//EN"
 "http://www.w3.org/TR/2001/REC-SVG-20010904/DTD/svg10.dtd">
<svg version="1.0" xmlns="http://www.w3.org/2000/svg"
 width="1920.000000pt" height="1080.000000pt" viewBox="0 0 1920.000000 1080.000000"
 preserveAspectRatio="xMidYMid meet">

<g transform="translate(0.000000,1080.000000) scale(0.100000,-0.100000)"
fill="#000000" stroke="none">
<path d="M0 5400 l0 -5400 9600 0 9600 0 0 5400 0 5400 -9600 0 -9600 0 0
-5400z m13800 2210 c0 -5 -5 -10 -11 -10 -5 0 -7 5 -4 10 3 6 8 10 11 10 2 0
4 -4 4 -10z m1315 -3 c28 -4 70 -10 95 -12 25 -3 56 -7 70 -10 14 -2 45 -8 70
-13 25 -5 55 -14 67 -20 12 -7 31 -12 43 -12 18 0 73 -21 193 -73 15 -6 27
-16 27 -21 0 -4 11 -5 25 -2 14 4 25 2 25 -2 0 -9 117 -82 131 -82 5 0 9 -4 9
-10 0 -5 11 -10 25 -10 17 0 25 -6 25 -17 0 -20 42 -43 75 -43 13 0 27 -10 35
-25 7 -14 17 -25 22 -25 4 0 8 -6 8 -13 0 -19 69 -42 83 -28 8 8 5 11 -12 11
-12 0 -29 7 -37 15 -14 13 -11 15 24 15 34 0 41 -4 46 -25 4 -14 11 -25 16
-25 6 0 10 -13 10 -30 0 -17 -5 -30 -12 -30 -9 0 -9 -3 0 -12 16 -16 32 5 32
45 0 15 4 27 10 27 5 0 12 11 16 25 5 22 12 25 50 25 49 0 63 -15 44 -49 -17
-32 3 -61 43 -62 l32 -1 -28 -8 c-16 -5 -34 -14 -42 -20 -10 -8 -14 -8 -18 2
-4 11 -7 11 -18 0 -12 -11 -11 -15 4 -26 22 -17 22 -26 -3 -26 -11 0 -20 -6
-20 -13 0 -22 33 -82 38 -69 2 7 -1 19 -7 26 -29 35 32 76 116 76 29 0 53 -4
53 -10 0 -14 73 -13 87 1 7 7 9 25 6 40 -4 22 -2 29 11 29 9 0 16 -5 16 -11 0
-6 9 -9 19 -6 14 3 28 -6 50 -34 37 -45 37 -49 10 -49 -15 0 -19 5 -14 19 3
12 0 21 -10 25 -12 4 -15 -5 -15 -59 l0 -65 -80 0 c-80 0 -80 0 -80 27 0 14
-3 23 -7 19 -11 -11 -13 -75 -2 -81 5 -4 9 -1 9 5 0 9 24 10 85 5 74 -6 88 -5
105 10 25 23 25 35 0 35 -21 0 -27 15 -9 25 5 4 18 0 29 -10 10 -9 31 -20 46
-24 22 -6 28 -13 27 -29 -2 -13 6 -27 17 -34 11 -7 20 -23 20 -36 0 -13 4 -20
10 -17 6 3 10 1 10 -4 0 -22 2 -27 21 -58 18 -29 18 -32 3 -41 -14 -8 -13 -10
8 -15 28 -7 35 -20 80 -144 18 -52 39 -93 46 -93 7 0 16 -8 19 -17 10 -25 31
-45 42 -39 4 3 32 6 61 7 42 2 56 -2 67 -16 13 -18 14 -18 43 -2 23 14 34 15
50 7 15 -8 20 -8 20 2 1 8 5 7 14 -4 17 -23 35 -23 51 -1 12 16 14 13 20 -22
4 -22 9 -48 12 -57 2 -10 0 -18 -6 -18 -6 0 -11 18 -11 40 0 22 -4 40 -10 40
-5 0 -10 -4 -10 -10 0 -5 -13 -10 -30 -10 -29 0 -30 -1 -30 -51 0 -40 3 -49
13 -42 6 6 28 13 48 16 32 5 38 2 48 -19 6 -13 15 -24 21 -24 5 0 10 -4 10
-10 0 -5 -7 -10 -15 -10 -11 0 -15 -11 -15 -40 0 -27 4 -40 14 -40 16 0 25
-29 27 -80 1 -32 2 -33 9 -10 5 17 8 19 9 8 1 -14 10 -18 41 -18 22 0 40 5 40
10 0 19 17 10 28 -15 17 -37 15 -55 -7 -55 -14 0 -21 8 -24 28 -4 25 -4 25 -6
-5 -1 -32 -3 -33 -41 -33 -27 0 -40 -4 -40 -14 0 -20 149 -34 161 -15 6 11 9
10 15 -4 9 -23 32 -21 53 5 l18 21 6 -31 c7 -35 27 -44 27 -13 0 11 3 27 7 37
5 14 9 9 19 -22 6 -21 12 -31 13 -21 1 23 81 25 81 2 0 -11 12 -15 50 -15 28
0 50 5 50 10 0 6 9 10 20 10 11 0 20 -4 20 -10 0 -23 19 -8 22 18 l3 27 14
-25 c10 -17 11 -25 2 -28 -20 -7 -11 -82 10 -82 5 0 9 16 9 35 0 20 8 50 17
68 17 31 18 31 21 8 4 -23 6 -23 70 -17 37 4 70 10 74 14 4 4 28 6 53 4 34 -3
45 -8 45 -21 0 -15 -14 -16 -130 -15 l-131 3 3 -41 2 -40 88 7 c85 6 88 6 88
-14 0 -20 -6 -21 -80 -21 -47 0 -80 -4 -80 -10 0 -15 143 -12 174 4 29 15 76
62 76 76 0 5 6 7 14 4 9 -3 17 3 21 15 7 23 52 35 106 28 27 -3 24 -4 -16 -6
-27 -1 -55 -5 -60 -9 -6 -4 -26 -38 -45 -77 -18 -38 -38 -71 -42 -73 -4 -2 -8
-9 -8 -16 0 -13 -88 -96 -102 -96 -4 0 -5 8 -2 18 5 13 4 14 -4 3 -6 -8 -8
-21 -4 -29 3 -10 0 -13 -9 -10 -8 3 -13 12 -13 21 1 9 -2 15 -6 12 -4 -2 -12
7 -19 21 -10 22 -9 28 6 39 28 21 3 41 -34 26 -27 -10 -27 -11 7 -5 31 6 33 5
21 -10 -17 -20 -41 -21 -67 -1 -10 8 -24 15 -30 15 -6 0 -51 -39 -100 -86
l-89 -86 -51 12 c-51 12 -77 8 -184 -35 -12 -4 -21 6 -34 34 -11 27 -30 48
-56 62 -22 12 -36 27 -33 32 3 6 1 7 -5 3 -6 -3 -32 5 -58 19 -31 16 -63 25
-93 25 -26 0 -71 7 -101 15 l-55 14 -52 -57 c-29 -31 -67 -78 -85 -104 -30
-43 -40 -50 -113 -74 -44 -14 -90 -33 -103 -40 -20 -13 -26 -11 -73 26 -28 22
-58 40 -67 40 -19 0 -132 -85 -132 -100 0 -5 -26 -16 -59 -25 -49 -14 -61 -22
-74 -51 l-17 -34 -92 0 c-105 0 -96 4 -242 -107 -52 -40 -97 -73 -101 -73 -3
0 -17 -11 -30 -24 -13 -13 -28 -26 -32 -27 -5 -2 -20 -26 -33 -53 -24 -47 -29
-51 -90 -69 -36 -11 -90 -28 -120 -39 -30 -10 -63 -21 -72 -23 -25 -6 -111
-45 -118 -53 -15 -21 -110 -72 -135 -72 -26 0 -116 64 -227 163 -18 15 -36 27
-41 27 -5 0 -17 10 -27 22 -15 19 -35 24 -136 35 -67 7 -145 22 -179 34 -66
25 -195 103 -195 119 0 5 -9 10 -20 10 -11 0 -20 6 -20 14 0 7 -8 16 -17 19
-10 4 -28 14 -41 23 -21 16 -22 16 -16 -2 7 -18 6 -18 -12 -3 -17 15 -81 49
-91 49 -2 0 -3 -8 -1 -17 2 -10 -4 -18 -12 -18 -8 -1 -28 -5 -43 -9 -42 -12
-93 19 -120 72 -12 24 -50 73 -84 110 -35 36 -63 70 -63 75 0 4 -10 5 -22 1
-20 -6 -21 -5 -10 8 10 13 6 25 -24 69 -54 81 -63 88 -101 87 -18 -1 -39 4
-45 10 -9 9 -22 2 -55 -30 -37 -37 -45 -40 -66 -31 -14 7 -35 34 -50 66 -14
30 -34 61 -44 69 -10 7 -28 31 -40 53 -29 53 -65 59 -88 16 -8 -17 -19 -31
-24 -31 -5 0 -28 -15 -50 -34 -23 -19 -50 -37 -60 -41 -10 -3 -39 -33 -64 -68
-63 -85 -104 -127 -159 -166 -27 -17 -48 -37 -48 -43 0 -6 -31 -42 -69 -79
l-69 -67 -66 3 c-55 3 -73 8 -120 40 l-56 37 -59 -15 c-46 -12 -67 -24 -98
-57 l-40 -43 -58 27 c-31 14 -62 26 -67 26 -5 0 -25 -15 -44 -32 -32 -30 -70
-45 -134 -51 -20 -2 -28 -11 -38 -44 -7 -23 -20 -44 -28 -47 -20 -8 -238 -29
-289 -29 -22 0 -123 17 -224 37 -141 28 -200 35 -250 32 -36 -3 -138 -8 -226
-11 -88 -3 -196 -8 -241 -11 l-80 -5 -145 87 c-79 48 -177 103 -217 122 -98
47 -150 43 -253 -18 -67 -39 -137 -90 -171 -123 -7 -7 -28 -23 -45 -35 l-33
-23 -164 21 c-91 11 -191 25 -223 31 -87 15 -478 28 -664 22 -126 -4 -190 -1
-274 12 -60 9 -139 21 -175 25 -78 11 -110 19 -110 31 0 5 -3 8 -7 8 -24 -4
-54 17 -243 171 -20 16 -46 37 -59 47 -21 17 -22 21 -8 35 9 9 14 18 11 20 -2
3 2 11 10 17 11 9 16 9 22 0 4 -8 3 -9 -4 -5 -7 4 -12 2 -12 -3 0 -15 26 -14
42 2 18 17 88 17 88 0 0 -7 11 -13 25 -13 14 0 25 -4 25 -10 0 -5 7 -10 15
-10 8 0 15 5 15 10 0 6 5 10 12 10 9 0 9 -3 0 -12 -7 -7 -12 -19 -12 -28 1
-13 3 -12 14 3 7 9 19 17 26 17 7 0 19 -8 26 -17 11 -15 13 -16 14 -3 0 9 -5
21 -12 28 -9 9 -9 12 0 12 8 0 11 27 9 90 -1 49 -5 90 -9 90 -5 0 -8 9 -8 20
0 11 5 20 10 20 6 0 10 -9 10 -20 0 -21 27 -40 59 -40 20 0 29 24 14 33 -5 2
-2 2 5 0 8 -1 29 -3 48 -3 25 0 34 -4 35 -17 1 -12 4 -10 9 7 16 51 12 60 -25
60 -33 0 -35 2 -35 36 0 35 18 64 39 64 6 0 11 -18 11 -40 0 -28 4 -40 14 -40
17 0 26 -22 26 -66 0 -39 16 -44 55 -18 18 12 28 13 44 4 18 -9 21 -8 21 13 0
12 -5 28 -12 35 -9 9 -8 12 5 12 13 0 17 -9 17 -40 0 -38 2 -40 30 -40 28 0
30 2 30 40 l0 40 45 0 c33 0 45 4 45 15 0 20 73 21 89 1 9 -11 -4 -15 -79 -20
l-90 -8 0 -29 c0 -27 2 -29 40 -29 34 0 40 3 40 20 0 17 3 19 19 10 20 -10 91
12 91 29 0 5 9 11 20 14 26 7 36 35 21 58 -9 15 -8 19 4 19 11 0 15 -11 15
-40 0 -29 4 -40 15 -40 24 0 20 72 -5 90 -11 8 -20 23 -20 33 0 16 5 14 30
-11 24 -24 30 -39 30 -71 0 -23 -4 -41 -10 -41 -5 0 -10 -11 -10 -25 0 -14 4
-25 8 -25 15 0 30 22 25 36 -4 11 6 14 41 14 42 0 46 2 46 25 0 23 4 25 40 25
22 0 40 -4 40 -10 0 -5 18 -10 40 -10 l40 0 0 45 c0 25 5 45 10 45 6 0 10 -9
10 -20 0 -13 7 -20 20 -20 13 0 20 7 20 20 0 11 5 20 10 20 6 0 10 -4 10 -10
0 -5 18 -10 40 -10 22 0 40 -4 40 -10 0 -5 -18 -10 -40 -10 -38 0 -40 -2 -40
-30 l0 -30 80 0 c76 0 80 1 80 23 0 12 6 42 13 66 10 33 15 40 20 27 4 -10 7
-26 7 -37 0 -30 20 -22 26 10 5 22 10 27 25 24 23 -6 24 -21 2 -45 -15 -17
-14 -18 28 -17 24 1 36 3 27 6 -20 5 -24 19 -8 25 6 2 31 2 55 0 l45 -4 0 -39
c0 -28 4 -39 15 -39 18 0 21 56 4 62 -9 3 -9 10 0 26 15 29 29 28 43 -3 6 -14
18 -25 26 -25 11 0 13 -8 9 -28 -8 -39 9 -66 18 -29 4 15 5 36 2 47 -4 14 0
20 13 20 10 0 35 7 56 16 l39 16 -23 18 c-24 20 -28 35 -11 45 9 6 49 -26 49
-39 0 -10 62 -66 74 -66 7 0 10 13 8 40 -3 26 -9 40 -18 40 -10 0 -14 12 -14
40 0 23 5 40 11 40 8 0 9 4 0 13 -6 8 -8 17 -4 20 17 17 23 2 23 -53 0 -33 4
-60 9 -60 5 0 11 -9 14 -20 6 -25 25 -26 34 -2 4 9 15 23 25 30 21 15 23 43 6
60 -9 9 -9 12 3 12 8 0 20 -9 27 -20 10 -16 10 -24 0 -40 -7 -11 -18 -20 -25
-20 -7 0 -13 -11 -13 -25 0 -25 1 -25 80 -25 64 0 80 3 80 15 0 11 -11 15 -39
15 -38 0 -59 19 -45 41 7 12 84 11 84 -1 0 -6 33 -10 80 -10 l80 0 1 -27 c2
-24 2 -25 6 -5 7 35 22 26 29 -18 11 -69 31 -41 26 38 0 12 3 22 9 22 5 0 9
14 9 30 0 22 5 30 18 30 16 1 16 1 0 14 -10 7 -18 18 -18 25 0 16 30 13 36 -4
4 -8 15 -15 25 -15 16 0 19 -8 19 -55 l0 -55 -40 0 c-30 0 -40 -4 -40 -16 0
-14 10 -15 78 -9 42 4 80 12 84 18 4 7 12 0 19 -16 7 -15 16 -27 20 -27 17 0
39 13 39 24 0 14 -47 36 -77 36 -20 0 -23 5 -23 40 l0 40 65 0 65 0 0 -40 c0
-22 5 -40 10 -40 6 0 10 17 10 38 0 31 -5 41 -25 52 -14 7 -25 19 -25 27 0 18
29 17 36 -2 4 -8 12 -15 20 -15 7 0 34 -22 60 -50 42 -45 51 -50 90 -50 l44 0
0 40 c0 33 -3 40 -20 40 -23 0 -24 4 -9 32 11 20 11 20 23 -3 14 -29 48 -36
66 -14 10 12 36 15 131 15 106 0 119 2 120 18 0 9 5 2 10 -15 10 -36 29 -45
29 -14 0 11 3 27 7 37 8 22 33 -55 33 -103 0 -39 15 -44 24 -8 4 15 16 27 31
31 14 3 25 10 25 15 0 5 20 9 45 9 43 0 45 1 56 40 9 28 18 40 31 40 10 0 18
-4 18 -9 0 -5 21 -15 46 -22 37 -11 45 -17 42 -34 -4 -18 0 -20 35 -16 26 2
42 -1 48 -10 6 -11 11 -11 21 -1 9 9 9 12 -5 12 -9 0 -17 7 -17 15 0 11 11 15
39 15 39 0 72 22 51 35 -5 3 -10 16 -10 28 1 20 2 21 14 5 7 -10 19 -18 26
-18 7 0 19 8 26 18 12 15 13 13 14 -20 0 -20 6 -41 14 -45 7 -4 16 -15 19 -23
3 -8 3 4 0 28 -6 45 6 55 33 27 9 -8 33 -15 55 -15 24 0 39 -5 39 -12 1 -8 6
-6 14 5 7 9 19 17 26 17 7 0 19 -8 27 -17 13 -17 14 -17 11 1 -5 29 -34 43
-58 28 -12 -7 -20 -8 -20 -2 0 5 -19 11 -42 12 l-43 1 45 7 c25 4 35 8 23 8
-29 3 -40 22 -12 22 30 0 18 10 -23 20 -33 8 -33 8 10 9 36 1 42 -2 42 -19 0
-17 7 -20 40 -20 36 0 40 -2 40 -25 0 -14 5 -25 10 -25 17 0 11 -32 -10 -50
-13 -11 -17 -21 -10 -25 5 -3 10 -1 10 4 0 6 7 11 15 11 8 0 15 5 15 10 0 6 7
10 16 10 9 0 21 14 27 30 10 26 16 30 49 30 21 0 38 5 38 10 0 6 -18 10 -40
10 -22 0 -40 5 -40 10 0 17 76 12 91 -7 11 -13 11 -17 2 -20 -7 -3 -13 -11
-13 -19 0 -10 12 -14 40 -14 28 0 40 4 40 14 0 8 -6 16 -12 19 -10 4 -10 7 0
18 9 9 12 10 12 1 0 -17 17 -15 24 3 14 37 -27 68 -50 38 -13 -16 -15 -16 -26
-3 -9 11 -28 15 -58 14 -36 -1 -38 0 -7 3 24 3 37 9 37 19 0 10 12 14 40 14
29 0 40 -4 40 -15 0 -8 6 -15 13 -15 15 0 41 81 41 128 0 17 4 32 8 32 4 0 8
8 8 18 0 14 7 17 45 14 28 -3 45 0 45 7 0 6 -18 11 -40 11 -37 0 -40 2 -40 27
0 21 3 24 12 15 25 -25 37 -14 26 24 -8 32 -7 38 14 52 12 9 32 15 44 14 12
-2 24 4 27 12 7 18 37 22 37 5 0 -7 -8 -18 -17 -25 -16 -12 -15 -13 10 -14 20
0 27 -5 27 -20 0 -11 5 -20 10 -20 6 0 10 9 10 20 0 11 -4 20 -10 20 -5 0 -10
18 -10 40 0 22 5 40 10 40 6 0 10 -18 10 -40 0 -28 4 -40 14 -40 8 0 17 -10
19 -22 2 -13 2 5 -1 40 l-5 62 62 0 63 0 -3 -45 c-2 -35 1 -48 16 -60 28 -20
37 -19 30 5 -3 11 -2 20 3 20 6 0 12 10 16 23 3 12 14 32 26 44 11 12 20 30
20 39 0 25 23 87 38 103 8 8 11 24 8 37 -6 24 15 54 40 54 8 0 14 10 14 23 0
13 9 26 22 32 14 6 25 23 29 45 4 19 12 36 18 38 6 2 11 10 11 18 0 16 47 64
61 64 5 0 9 8 9 18 0 10 16 33 35 52 19 19 35 40 35 48 0 9 6 12 16 8 9 -3 25
-6 35 -6 11 0 17 -4 14 -10 -3 -5 3 -10 15 -10 11 0 20 6 18 13 -1 6 4 22 11
35 10 18 10 26 0 38 -20 24 -2 27 20 3 24 -26 26 -40 9 -57 -9 -9 -9 -12 3
-12 22 0 40 37 33 67 -5 18 -4 24 5 19 6 -4 11 -16 11 -27 0 -10 5 -19 10 -19
17 0 11 -38 -7 -43 -10 -3 2 -5 27 -5 25 0 37 2 28 5 -18 5 -26 43 -9 43 5 0
12 10 14 23 4 21 4 21 6 -3 1 -14 8 -34 16 -44 13 -18 13 -22 -5 -38 -11 -10
-34 -18 -55 -18 -30 0 -35 -3 -35 -24 0 -13 -8 -27 -17 -31 -17 -6 -17 -8 2
-21 19 -15 19 -16 1 -29 -17 -13 -16 -14 15 -19 19 -3 50 -7 69 -8 26 -2 35
-7 34 -20 -2 -26 9 -22 23 7 10 24 9 25 -18 25 -28 0 -29 2 -29 49 0 36 4 51
16 55 9 4 14 13 10 21 -4 11 2 15 24 15 37 0 42 -31 8 -48 -19 -9 -20 -11 -5
-11 10 -1 25 -8 33 -16 17 -16 54 -21 54 -6 0 5 16 25 35 44 19 19 35 38 35
41 0 13 -23 5 -36 -11 -13 -17 -13 -17 -14 0 0 9 5 17 10 17 6 0 10 20 10 45
0 25 5 45 10 45 6 0 10 -18 10 -40 0 -30 4 -40 16 -40 14 0 16 7 11 40 -4 35
-2 40 14 40 10 0 19 -4 19 -10 0 -5 -4 -10 -10 -10 -5 0 -10 -10 -10 -22 l0
-21 23 21 c13 12 29 22 35 22 7 0 12 4 12 9 0 5 20 17 45 27 24 11 50 29 56
41 7 13 21 23 31 23 21 0 98 48 98 61 0 5 -9 9 -20 9 -22 0 -27 15 -9 25 6 4
19 -2 30 -14 26 -28 31 -27 68 11 17 17 31 26 31 20 0 -9 11 -8 38 4 58 25
103 41 155 55 26 8 47 16 47 20 0 4 10 7 23 7 12 0 40 5 62 12 22 6 54 13 70
15 40 4 147 24 151 27 6 6 282 2 329 -5z m785 -67 c0 -5 -2 -10 -4 -10 -3 0
-8 5 -11 10 -3 6 -1 10 4 10 6 0 11 -4 11 -10z m-140 -30 c0 -5 -2 -10 -4 -10
-3 0 -8 5 -11 10 -3 6 -1 10 4 10 6 0 11 -4 11 -10z m-2120 -40 c0 -11 -4 -20
-9 -20 -14 0 -23 18 -16 30 10 17 25 11 25 -10z m70 -20 c0 -5 -7 -10 -15 -10
-8 0 -15 5 -15 10 0 6 7 10 15 10 8 0 15 -4 15 -10z m2625 -18 c-3 -3 -11 0
-18 7 -9 10 -8 11 6 5 10 -3 15 -9 12 -12z m-548 2 c-3 -3 -12 -4 -19 -1 -8 3
-5 6 6 6 11 1 17 -2 13 -5z m-2207 -17 c0 -7 -13 -21 -30 -30 -26 -16 -30 -16
-30 -3 0 9 12 22 28 30 34 19 32 19 32 3z m2800 -16 c0 -4 -3 -11 -7 -14 -8
-9 -34 13 -28 24 6 9 35 1 35 -10z m-2475 -51 c-3 -5 -10 -10 -16 -10 -5 0 -9
5 -9 10 0 6 7 10 16 10 8 0 12 -4 9 -10z m2482 -33 c-6 -19 -21 -6 -24 20 -3
27 -3 27 12 8 8 -10 14 -23 12 -28z m-2896 9 c-7 -8 -21 -14 -32 -13 -37 3
-15 22 30 26 11 1 11 -2 2 -13z m384 5 c3 -5 1 -12 -5 -16 -5 -3 -10 1 -10 9
0 18 6 21 15 7z m42 -13 c-3 -8 -6 -5 -6 6 -1 11 2 17 5 13 3 -3 4 -12 1 -19z
m2447 -38 c19 0 21 -15 4 -26 -6 -4 -16 0 -23 9 -7 10 -17 17 -23 17 -6 0 -9
7 -5 16 6 16 7 16 18 0 7 -9 20 -16 29 -16z m-2944 -18 c0 -10 -13 -26 -30
-35 -29 -18 -30 -18 -30 2 0 12 7 21 15 21 9 0 18 7 21 15 8 21 24 19 24 -3z
m238 6 c-3 -7 -11 -13 -18 -13 -7 0 -15 6 -17 13 -3 7 4 12 17 12 13 0 20 -5
18 -12z m32 -28 c0 -29 -4 -40 -15 -40 -17 0 -20 16 -5 25 6 3 10 17 10 31 0
13 2 24 5 24 3 0 5 -18 5 -40z m48 -10 c-3 -27 -1 -50 3 -50 5 0 9 -11 9 -25
0 -25 -32 -51 -50 -40 -15 9 -12 55 5 71 8 9 15 33 15 55 0 22 5 39 11 39 8 0
10 -17 7 -50z m2342 30 c0 -11 -4 -20 -9 -20 -5 0 -7 9 -4 20 3 11 7 20 9 20
2 0 4 -9 4 -20z m316 -57 c-10 -10 -19 5 -10 18 6 11 8 11 12 0 2 -7 1 -15 -2
-18z m134 0 c28 6 29 5 16 -8 -8 -8 -26 -15 -40 -15 -20 0 -26 5 -26 23 0 16
3 19 9 8 6 -10 19 -12 41 -8z m-145 -43 c0 -13 -6 -25 -12 -27 -9 -3 -13 6
-13 27 0 21 4 30 13 28 6 -3 12 -15 12 -28z m199 14 c23 -9 20 -24 -4 -24 -11
0 -20 7 -20 15 0 17 2 18 24 9z m-78 -28 c18 -19 18 -26 -1 -26 -8 0 -15 -4
-15 -10 0 -5 16 -10 35 -10 28 0 35 -4 35 -20 0 -17 -7 -20 -40 -20 -29 0 -40
4 -40 15 0 11 -12 16 -42 17 l-43 1 43 4 c39 4 42 6 42 34 0 33 5 35 26 15z
m214 -141 c0 -8 5 -15 10 -15 6 0 10 -7 10 -15 0 -20 -7 -19 -31 4 -12 11 -18
24 -14 30 9 16 25 13 25 -4z m-3740 -5 c0 -5 -4 -10 -10 -10 -5 0 -10 5 -10
10 0 6 5 10 10 10 6 0 10 -4 10 -10z m-220 -160 c0 -5 -4 -10 -10 -10 -5 0
-10 5 -10 10 0 6 5 10 10 10 6 0 10 -4 10 -10z m4157 -56 c-3 -3 -12 -4 -19
-1 -8 3 -5 6 6 6 11 1 17 -2 13 -5z m-4197 -20 c0 -8 -4 -12 -10 -9 -5 3 -10
10 -10 16 0 5 5 9 10 9 6 0 10 -7 10 -16z m63 -41 c-13 -2 -33 -2 -45 0 -13 2
-3 4 22 4 25 0 35 -2 23 -4z m4134 1 c-3 -3 -12 -4 -19 -1 -8 3 -5 6 6 6 11 1
17 -2 13 -5z m-11250 -40 c-3 -3 -12 -4 -19 -1 -8 3 -5 6 6 6 11 1 17 -2 13
-5z m6976 -29 c4 -25 4 -25 -15 -9 -14 14 -16 19 -6 26 7 4 14 8 14 8 1 0 4
-11 7 -25z m-7318 -75 l20 -25 -22 19 c-13 11 -23 24 -23 29 0 6 1 8 3 6 1 -2
11 -15 22 -29z m415 6 c0 -2 -8 -10 -17 -17 -16 -13 -17 -12 -4 4 13 16 21 21
21 13z m6740 -36 c0 -5 -2 -10 -4 -10 -3 0 -8 5 -11 10 -3 6 -1 10 4 10 6 0
11 -4 11 -10z m4670 6 c0 -2 -7 -6 -15 -10 -8 -3 -15 -1 -15 4 0 6 7 10 15 10
8 0 15 -2 15 -4z m-4 -56 l39 -19 -32 -1 c-18 0 -33 5 -33 10 0 6 -18 10 -40
10 -22 0 -40 5 -40 10 0 17 64 11 106 -10z m74 -14 c0 -8 -4 -18 -10 -21 -5
-3 -10 3 -10 14 0 12 5 21 10 21 6 0 10 -6 10 -14z m60 -7 c0 -11 -4 -17 -10
-14 -5 3 -10 13 -10 21 0 8 5 14 10 14 6 0 10 -9 10 -21z m58 -11 c-3 -7 -11
-13 -18 -13 -7 0 -15 6 -17 13 -3 7 4 12 17 12 13 0 20 -5 18 -12z m-5445 -65
c-7 -2 -19 -2 -25 0 -7 3 -2 5 12 5 14 0 19 -2 13 -5z m-5966 -29 c-3 -3 -12
-4 -19 -1 -8 3 -5 6 6 6 11 1 17 -2 13 -5z m5433 -69 c0 -8 -2 -15 -4 -15 -2
0 -6 7 -10 15 -3 8 -1 15 4 15 6 0 10 -7 10 -15z m420 5 c0 -5 -4 -10 -10 -10
-5 0 -10 5 -10 10 0 6 5 10 10 10 6 0 10 -4 10 -10z m520 0 c0 -5 -2 -10 -4
-10 -3 0 -8 5 -11 10 -3 6 -1 10 4 10 6 0 11 -4 11 -10z m-1173 -37 c-3 -10
-5 -4 -5 12 0 17 2 24 5 18 2 -7 2 -21 0 -30z m713 7 c0 -11 -4 -20 -9 -20
-14 0 -23 18 -16 30 10 17 25 11 25 -10z m-6140 0 c0 -5 -5 -10 -11 -10 -5 0
-7 5 -4 10 3 6 8 10 11 10 2 0 4 -4 4 -10z m6275 -10 c3 -5 -3 -10 -15 -10
-12 0 -18 5 -15 10 3 6 10 10 15 10 5 0 12 -4 15 -10z m-635 -43 c0 -5 -4 -5
-10 -2 -5 3 -10 14 -10 23 0 15 2 15 10 2 5 -8 10 -19 10 -23z m960 23 c0 -5
-5 -10 -11 -10 -5 0 -7 5 -4 10 3 6 8 10 11 10 2 0 4 -4 4 -10z m-776 -8 c2
-4 -12 -6 -32 -4 -56 5 -62 10 -15 11 23 1 44 -3 47 -7z m151 3 c-23 -8 -83
-10 -79 -3 3 4 24 8 47 7 23 0 38 -2 32 -4z m165 -11 c0 -2 -18 -4 -40 -4 -22
0 -40 3 -40 8 0 4 18 6 40 4 22 -2 40 -6 40 -8z m138 -6 c-3 -7 -11 -13 -18
-13 -7 0 -15 6 -17 13 -3 7 4 12 17 12 13 0 20 -5 18 -12z m7159 6 c-3 -3 -12
-4 -19 -1 -8 3 -5 6 6 6 11 1 17 -2 13 -5z m-13332 -14 c3 -5 1 -10 -4 -10 -6
0 -11 5 -11 10 0 6 2 10 4 10 3 0 8 -4 11 -10z m13292 4 c-3 -3 -12 -4 -19 -1
-8 3 -5 6 6 6 11 1 17 -2 13 -5z m-7810 -36 c-3 -7 -5 -2 -5 12 0 14 2 19 5
13 2 -7 2 -19 0 -25z m153 22 c0 -5 -18 -10 -40 -10 -22 0 -40 5 -40 10 0 6
18 10 40 10 22 0 40 -4 40 -10z m7617 4 c-3 -3 -12 -4 -19 -1 -8 3 -5 6 6 6
11 1 17 -2 13 -5z m-7487 -14 c0 -5 -4 -10 -10 -10 -5 0 -10 5 -10 10 0 6 5
10 10 10 6 0 10 -4 10 -10z m-2010 -9 c0 -17 -18 -21 -24 -6 -3 9 0 15 9 15 8
0 15 -4 15 -9z m50 -12 c0 -11 -4 -17 -10 -14 -5 3 -10 13 -10 21 0 8 5 14 10
14 6 0 10 -9 10 -21z m50 1 c0 -11 -4 -20 -10 -20 -5 0 -10 9 -10 20 0 11 5
20 10 20 6 0 10 -9 10 -20z m1680 -10 c0 -5 -5 -10 -11 -10 -5 0 -7 5 -4 10 3
6 8 10 11 10 2 0 4 -4 4 -10z m-216 -15 c-4 -8 -11 -12 -16 -9 -6 4 -5 10 3
15 19 12 19 11 13 -6z m299 8 c-13 -2 -33 -2 -45 0 -13 2 -3 4 22 4 25 0 35
-2 23 -4z m380 0 c-24 -2 -43 -9 -43 -14 0 -6 -5 -7 -11 -3 -19 11 12 24 56
22 l40 -1 -42 -4z m-743 -7 c0 -3 -4 -8 -10 -11 -5 -3 -10 -1 -10 4 0 6 5 11
10 11 6 0 10 -2 10 -4z m7930 -16 c0 -5 -4 -10 -10 -10 -5 0 -10 5 -10 10 0 6
5 10 10 10 6 0 10 -4 10 -10z m-7894 -11 c10 -17 -13 -36 -27 -22 -12 12 -4
33 11 33 5 0 12 -5 16 -11z m-796 -24 c0 -14 -4 -25 -10 -25 -11 0 -14 33 -3
43 11 11 13 8 13 -18z m690 -17 c0 -4 -7 -8 -15 -8 -10 0 -15 10 -15 28 1 26
1 26 15 8 8 -11 15 -23 15 -28z m610 27 c0 -11 -11 -15 -40 -15 -22 0 -40 -4
-40 -10 0 -5 -18 -10 -40 -10 -29 0 -40 4 -40 15 0 11 11 15 40 15 22 0 40 5
40 10 0 6 18 10 40 10 29 0 40 -4 40 -15z m-1675 -5 c-3 -5 -25 -9 -48 -8
l-42 1 45 7 c25 4 46 8 48 8 2 1 0 -2 -3 -8z m1012 -10 c3 -11 9 -20 14 -20 5
0 9 -7 9 -15 0 -8 -5 -15 -10 -15 -6 0 -13 7 -16 15 -4 8 -12 15 -20 15 -14 0
-19 22 -7 33 12 13 25 7 30 -13z m6726 3 c-13 -2 -33 -2 -45 0 -13 2 -3 4 22
4 25 0 35 -2 23 -4z m271 -8 c17 -17 46 -20 46 -5 0 6 5 10 10 10 6 0 10 -9
10 -20 0 -29 -69 -29 -77 -1 -4 15 -16 21 -47 24 l-41 4 42 1 c26 1 47 -4 57
-13z m-8680 -11 c9 -23 8 -24 -14 -24 -11 0 -20 2 -20 4 0 12 13 36 20 36 4 0
11 -7 14 -16z m236 6 c0 -5 -11 -10 -25 -10 -14 0 -25 5 -25 10 0 6 11 10 25
10 14 0 25 -4 25 -10z m493 -4 c9 -7 17 -19 17 -27 -1 -10 -4 -9 -14 4 -7 9
-19 17 -26 17 -7 0 -19 -8 -26 -17 -10 -13 -13 -14 -14 -4 0 12 27 40 40 40 3
0 13 -6 23 -13z m417 -1 c0 -11 -11 -15 -42 -14 -43 1 -43 1 -10 9 18 4 36 10
39 14 10 9 13 7 13 -9z m-1087 -10 c1 -5 -6 -11 -15 -13 -11 -2 -18 3 -18 13
0 17 30 18 33 0z m-3468 -5 c-3 -5 -16 -10 -28 -9 -20 1 -20 2 3 9 14 4 26 8
28 9 2 1 0 -3 -3 -9z m3155 0 c0 -5 -4 -10 -10 -10 -5 0 -10 5 -10 10 0 6 5
10 10 10 6 0 10 -4 10 -10z m550 0 c0 -5 -4 -10 -9 -10 -6 0 -12 -15 -14 -32
-3 -29 -4 -27 -5 10 -2 31 2 42 13 42 8 0 15 -4 15 -10z m53 -11 c3 -12 2 -31
-3 -42 -8 -19 -9 -18 -9 11 -1 17 -5 32 -11 32 -5 0 -10 5 -10 10 0 19 28 10
33 -11z m916 -15 c-25 -26 -35 -31 -37 -20 -3 11 -15 16 -43 16 -22 0 -39 5
-39 11 0 8 17 10 51 7 37 -4 52 -2 56 8 3 8 15 14 26 14 19 0 17 -4 -14 -36z
m161 -4 c0 -29 -4 -40 -15 -40 -11 0 -15 11 -15 40 0 29 4 40 15 40 11 0 15
-11 15 -40z m6940 25 c0 -8 -4 -15 -10 -15 -5 0 -10 -12 -11 -27 l0 -28 -10
24 c-5 13 -7 32 -4 42 7 23 35 25 35 4z m60 5 c0 -5 18 -10 40 -10 36 0 40 -2
40 -25 0 -22 -4 -25 -40 -25 -33 0 -40 3 -40 20 0 11 -4 20 -10 20 -5 0 -10 7
-10 15 0 8 5 15 10 15 6 0 10 -4 10 -10z m811 -9 c12 -11 18 -24 14 -30 -10
-18 -25 -13 -25 9 0 10 -8 24 -17 29 -11 6 -13 11 -5 11 7 0 22 -9 33 -19z
m430 -24 c-16 -16 -24 -18 -32 -10 -13 13 -5 43 12 43 8 0 8 -4 -1 -15 -7 -9
-10 -18 -7 -21 8 -8 37 21 38 38 0 10 2 10 6 -1 3 -7 -4 -23 -16 -34z m-13294
10 c-17 -5 -37 -6 -48 -1 -14 7 -7 9 28 10 43 1 45 0 20 -9z m12693 -7 c0 -21
-15 -27 -25 -10 -7 12 2 30 16 30 5 0 9 -9 9 -20z m118 8 c-7 -19 -38 -22 -38
-4 0 10 9 16 21 16 12 0 19 -5 17 -12z m-13473 -8 c3 -6 -1 -7 -9 -4 -18 7
-21 14 -7 14 6 0 13 -4 16 -10z m4795 -15 c0 -20 -5 -25 -25 -25 -29 0 -31 7
-8 32 22 25 33 23 33 -7z m-4055 -14 c-6 -5 -25 10 -25 20 0 5 6 4 14 -3 8 -7
12 -15 11 -17z m13065 19 c0 -5 -4 -10 -10 -10 -5 0 -10 5 -10 10 0 6 5 10 10
10 6 0 10 -4 10 -10z m-9650 -15 c0 -8 -4 -15 -10 -15 -5 0 -10 7 -10 15 0 8
5 15 10 15 6 0 10 -7 10 -15z m8544 6 c3 -5 -1 -14 -9 -21 -12 -10 -18 -10
-30 0 -18 15 -11 30 15 30 10 0 21 -4 24 -9z m1148 -23 c-9 -9 -12 -7 -12 12
0 19 3 21 12 12 9 -9 9 -15 0 -24z m-9774 -12 c-2 -10 -8 -11 -28 -3 -25 10
-25 10 -2 14 12 3 22 10 23 16 0 9 2 9 6 0 2 -7 3 -19 1 -27z m9222 30 c0 -3
-4 -8 -10 -11 -5 -3 -10 -1 -10 4 0 6 5 11 10 11 6 0 10 -2 10 -4z m300 -6 c0
-5 -2 -10 -4 -10 -3 0 -8 5 -11 10 -3 6 -1 10 4 10 6 0 11 -4 11 -10z m-9697
-7 c-13 -2 -33 -2 -45 0 -13 2 -3 4 22 4 25 0 35 -2 23 -4z m792 -2 c3 -5 1
-12 -4 -15 -5 -3 -11 1 -15 9 -6 16 9 21 19 6z m8835 -12 c0 -5 -19 -8 -42 -7
l-43 1 38 4 c24 3 35 8 31 15 -4 7 -2 8 4 4 7 -4 12 -11 12 -17z m384 2 c-13
-12 -21 -15 -26 -7 -6 9 6 17 41 25 3 1 -4 -7 -15 -18z m-12744 -12 c0 -14
-17 -10 -23 5 -4 10 -1 13 9 9 7 -3 14 -9 14 -14z m3790 7 c0 -7 -10 -16 -22
-19 -13 -2 -31 -8 -40 -12 -13 -5 -18 -3 -18 9 0 10 9 16 23 16 12 0 29 5 37
10 19 13 20 12 20 -4z m8020 4 c0 -5 -4 -10 -10 -10 -5 0 -10 5 -10 10 0 6 5
10 10 10 6 0 10 -4 10 -10z m60 0 c0 -5 -4 -10 -10 -10 -5 0 -10 5 -10 10 0 6
5 10 10 10 6 0 10 -4 10 -10z m193 3 c-7 -2 -19 -2 -25 0 -7 3 -2 5 12 5 14 0
19 -2 13 -5z m337 -7 c0 -22 -21 -33 -77 -40 -34 -4 -53 -3 -53 4 0 5 15 10
33 10 47 0 77 10 77 26 0 8 5 14 10 14 6 0 10 -6 10 -14z m175 -49 c22 -18 39
-25 51 -20 12 4 15 3 10 -5 -4 -7 -3 -12 3 -12 13 0 41 41 35 52 -3 4 2 5 10
2 10 -4 12 -10 5 -17 -5 -7 -18 -22 -28 -35 l-19 -23 -36 22 c-20 11 -36 25
-36 30 0 5 -6 9 -13 9 -16 0 -57 37 -57 50 0 10 12 2 75 -53z m125 43 c0 -5
-5 -10 -11 -10 -5 0 -7 5 -4 10 3 6 8 10 11 10 2 0 4 -4 4 -10z m-12347 -7
c-7 -2 -19 -2 -25 0 -7 3 -2 5 12 5 14 0 19 -2 13 -5z m12108 -13 c-13 -11
-29 -20 -36 -20 -7 0 -15 -6 -18 -12 -2 -7 -8 -9 -13 -5 -10 10 24 39 36 32 4
-3 13 2 20 10 7 8 18 15 24 15 6 -1 0 -10 -13 -20z m-11501 -10 c8 -5 12 -11
10 -14 -3 -2 -14 2 -24 10 -22 15 -10 19 14 4z m1550 -5 c0 -13 -4 -14 -20 -5
-14 8 -26 8 -40 0 -16 -9 -20 -8 -20 5 0 11 11 15 40 15 29 0 40 -4 40 -15z
m479 -21 c2 -2 -8 -4 -22 -4 -18 0 -27 5 -27 15 0 13 4 14 23 4 12 -6 24 -13
26 -15z m136 6 c3 -5 -3 -10 -15 -10 -12 0 -18 5 -15 10 3 6 10 10 15 10 5 0
12 -4 15 -10z m-2120 -18 c-3 -3 -11 0 -18 7 -9 10 -8 11 6 5 10 -3 15 -9 12
-12z m1648 11 c-13 -2 -33 -2 -45 0 -13 2 -3 4 22 4 25 0 35 -2 23 -4z m-645
-15 c-3 -7 -11 -13 -18 -13 -7 0 -15 6 -17 13 -3 7 4 12 17 12 13 0 20 -5 18
-12z m161 -9 l24 -20 -22 -15 c-12 -8 -18 -20 -15 -26 5 -8 1 -9 -10 -5 -10 4
-29 7 -42 7 -15 0 -23 4 -19 10 4 6 15 8 24 5 26 -8 47 20 31 40 -7 9 -21 13
-31 10 -9 -3 -20 -1 -24 5 -12 19 59 10 84 -11z m601 17 c0 -3 -4 -8 -10 -11
-5 -3 -10 -1 -10 4 0 6 5 11 10 11 6 0 10 -2 10 -4z m9450 0 c0 -3 -4 -8 -10
-11 -5 -3 -10 -1 -10 4 0 6 5 11 10 11 6 0 10 -2 10 -4z m-12978 -36 c-18 -17
-37 -30 -44 -30 -10 0 61 58 72 59 3 0 -10 -13 -28 -29z m2628 20 c0 -5 -18
-10 -40 -10 -22 0 -40 5 -40 10 0 6 18 10 40 10 22 0 40 -4 40 -10z m720 0 c0
-5 -18 -10 -40 -10 -22 0 -40 5 -40 10 0 6 18 10 40 10 22 0 40 -4 40 -10z
m-2907 -20 c3 -11 1 -18 -4 -14 -5 3 -9 12 -9 20 0 20 7 17 13 -6z m2372 9 c7
-10 -32 -55 -41 -47 -5 6 19 58 28 58 4 0 10 -5 13 -11z m751 0 c10 -17 -13
-36 -27 -22 -12 12 -4 33 11 33 5 0 12 -5 16 -11z m9339 -9 c0 -8 -8 -16 -17
-18 -13 -2 -18 3 -18 18 0 15 5 20 18 18 9 -2 17 -10 17 -18z m-10575 0 c0 -5
-4 -10 -10 -10 -5 0 -10 5 -10 10 0 6 5 10 10 10 6 0 10 -4 10 -10z m-1916
-16 c5 -14 4 -15 -9 -4 -17 14 -19 20 -6 20 5 0 12 -7 15 -16z m1411 6 c3 -6
-1 -7 -9 -4 -18 7 -21 14 -7 14 6 0 13 -4 16 -10z m-1538 -25 c-7 -17 -27 -21
-27 -4 0 5 5 7 10 4 6 -3 10 2 10 11 0 10 3 15 6 11 4 -3 4 -13 1 -22z m2443
4 c0 -5 -4 -9 -10 -9 -5 0 -10 7 -10 16 0 8 5 12 10 9 6 -3 10 -10 10 -16z
m620 11 c0 -5 -18 -10 -40 -10 -22 0 -40 5 -40 10 0 6 18 10 40 10 22 0 40 -4
40 -10z m-3765 -20 c3 -6 -1 -7 -9 -4 -18 7 -21 14 -7 14 6 0 13 -4 16 -10z
m355 0 c0 -5 -10 -14 -22 -20 -21 -10 -21 -10 -6 3 10 8 15 17 11 20 -3 4 -1
7 5 7 7 0 12 -4 12 -10z m2065 0 c-3 -5 -18 -10 -33 -9 l-27 1 25 8 c35 11 42
11 35 0z m608 3 c-13 -2 -33 -2 -45 0 -13 2 -3 4 22 4 25 0 35 -2 23 -4z
m-723 -13 c8 -5 11 -12 8 -16 -4 -3 -14 1 -23 10 -18 17 -9 21 15 6z m50 0 c0
-5 -7 -10 -15 -10 -8 0 -15 5 -15 10 0 6 7 10 15 10 8 0 15 -4 15 -10z m155
-10 c42 -17 44 -19 15 -14 -35 6 -94 33 -75 34 6 0 33 -9 60 -20z m125 10 c18
-12 2 -12 -25 0 -13 6 -15 9 -5 9 8 0 22 -4 30 -9z m977 -15 c-10 -21 -13 -22
-19 -7 -11 27 -9 32 11 32 17 0 18 -3 8 -25z m-3419 -5 c-7 -11 -17 -20 -22
-20 -5 0 -1 9 9 20 10 11 20 20 22 20 2 0 -2 -9 -9 -20z m558 7 c4 -4 -18 -7
-49 -7 -31 0 -58 3 -60 8 -6 9 100 8 109 -1z m2554 -17 c0 -11 -7 -20 -15 -20
-8 0 -15 -4 -15 -10 0 -5 5 -10 10 -10 6 0 10 -18 10 -40 0 -22 -4 -40 -10
-40 -5 0 -10 9 -10 20 0 11 -4 20 -10 20 -5 0 -10 9 -10 20 0 11 -4 20 -10 20
-5 0 -10 -9 -10 -20 0 -11 -4 -20 -10 -20 -5 0 -10 -9 -10 -19 0 -25 -76 -35
-91 -11 -8 11 -11 12 -15 3 -3 -7 -17 -13 -30 -13 -36 0 -74 -42 -66 -71 5
-19 7 -20 10 -6 4 19 22 24 22 5 0 -7 -5 -20 -10 -28 -9 -13 -14 -10 -37 15
-14 16 -31 30 -37 31 -6 1 -38 14 -71 29 -33 14 -48 23 -32 20 25 -5 27 -3 27
25 0 28 2 30 40 30 22 0 42 0 45 0 3 0 4 -3 3 -7 -2 -4 -19 -7 -38 -6 -32 0
-33 0 -4 -4 24 -3 34 -11 44 -38 14 -35 36 -38 27 -3 -5 17 -2 19 19 14 14 -4
24 -2 24 4 0 5 9 10 20 10 14 0 20 7 20 21 0 19 4 21 31 15 17 -3 43 -7 58 -7
19 -1 16 -4 -14 -9 l-40 -8 40 2 c33 1 41 5 43 24 3 21 0 22 -60 22 -62 -1
-98 -15 -98 -39 0 -7 -5 -9 -11 -5 -8 4 -8 9 0 17 6 6 11 20 11 30 0 18 5 19
73 13 39 -4 81 -10 93 -12 13 -4 30 4 50 24 35 36 44 38 44 12z m-3200 0 c0
-5 -7 -10 -16 -10 -8 0 -12 5 -9 10 3 6 10 10 16 10 5 0 9 -4 9 -10z m2519 6
c-2 -2 -17 -6 -34 -10 -22 -5 -26 -4 -15 4 14 9 59 15 49 6z m1 -26 c0 -5 -5
-10 -11 -10 -5 0 -7 5 -4 10 3 6 8 10 11 10 2 0 4 -4 4 -10z m710 -55 c0 -25
-4 -45 -10 -45 -5 0 -10 20 -10 45 0 25 5 45 10 45 6 0 10 -20 10 -45z m-572
20 c-13 -5 -25 -12 -28 -16 -3 -3 -22 2 -42 11 l-37 16 65 0 c51 -1 60 -3 42
-11z m254 3 c-9 -9 -15 -9 -24 0 -9 9 -7 12 12 12 19 0 21 -3 12 -12z m-212
-6 c0 -10 -50 -35 -57 -28 -3 3 29 24 55 35 1 1 2 -3 2 -7z m288 -89 c-10 -2
-26 -2 -35 0 -10 3 -2 5 17 5 19 0 27 -2 18 -5z m6072 -494 c0 -6 -4 -7 -10
-4 -5 3 -10 11 -10 16 0 6 5 7 10 4 6 -3 10 -11 10 -16z m703 -476 c-7 -2 -19
-2 -25 0 -7 3 -2 5 12 5 14 0 19 -2 13 -5z m-2402 -915 c38 -37 41 -37 64 -22
14 9 32 14 40 10 9 -3 14 -2 11 3 -3 5 7 14 23 19 26 9 32 7 71 -33 23 -24 40
-47 37 -52 -3 -4 36 -8 86 -9 51 0 86 1 79 4 -8 2 8 18 38 39 42 28 54 32 66
22 12 -9 23 -9 55 1 l40 13 75 -76 c41 -43 72 -82 69 -87 -3 -5 10 -16 29 -25
65 -31 170 -146 160 -177 -3 -10 2 -28 10 -40 19 -27 21 -48 3 -48 -7 0 -13
11 -12 27 0 23 -6 28 -45 39 -39 11 -42 13 -22 19 27 9 29 25 2 25 -11 0 -20
-5 -20 -11 0 -5 -5 -7 -11 -3 -6 3 -8 15 -6 26 4 14 1 18 -8 14 -8 -3 -12 0
-9 8 3 8 -9 13 -41 15 -72 3 -85 -4 -85 -50 0 -39 0 -39 -39 -39 -34 0 -41 4
-53 30 -15 36 -39 39 -53 8 -8 -18 -20 -24 -52 -26 -26 -2 -43 1 -43 7 0 6 18
11 40 11 29 0 40 4 40 15 0 9 -9 15 -22 15 -21 0 -21 1 -3 20 14 16 16 23 7
32 -10 10 -17 10 -33 0 -22 -14 -94 -8 -105 9 -7 11 -24 12 -24 1 0 -5 11 -15
25 -22 14 -7 34 -29 46 -49 l21 -35 -23 -17 c-22 -17 -59 -15 -59 3 0 6 6 8
14 5 8 -3 22 1 33 9 16 13 14 13 -21 10 -21 -3 -47 -12 -57 -22 -11 -9 -21
-15 -24 -12 -8 8 41 48 65 53 12 2 25 6 27 9 13 12 -275 246 -304 246 -6 0
-68 -46 -118 -88 -21 -18 -44 -31 -51 -28 -6 2 -17 0 -25 -6 -11 -8 -10 -9 4
-4 22 7 22 1 -1 -22 -25 -25 -154 -61 -160 -44 -2 7 -16 12 -30 11 l-27 -1 25
-9 c16 -5 -6 -6 -60 -3 -98 5 -208 23 -215 34 -2 4 5 16 16 26 16 14 22 16 28
5 6 -8 11 -9 15 -3 3 6 0 13 -6 16 -10 5 -10 7 0 12 7 3 22 23 32 45 21 41 36
52 28 21 -3 -12 0 -19 9 -19 9 0 11 6 6 16 -4 9 -7 36 -7 60 l-1 43 110 33
c91 28 125 33 198 32 87 -1 88 -1 128 -39z m-571 -73 c0 -3 -11 -27 -25 -52
l-24 -47 1 47 c0 33 5 47 17 50 25 7 31 7 31 2z m2735 -24 c230 -20 391 -32
690 -51 88 -6 193 -13 234 -16 l74 -6 -31 -30 c-18 -16 -32 -35 -32 -43 0 -7
20 -26 44 -41 25 -16 42 -32 39 -38 -3 -5 -1 -6 6 -2 6 4 42 -2 79 -13 38 -11
129 -25 212 -31 80 -7 149 -16 154 -20 11 -11 -32 -33 -50 -26 -8 3 -25 -3
-37 -14 -12 -11 -27 -18 -34 -16 -7 3 -15 1 -19 -5 -8 -13 -79 -5 -99 11 -12
10 -18 10 -32 -1 -35 -27 -45 -40 -38 -47 4 -4 15 3 25 16 21 26 45 29 54 6 3
-8 10 -12 16 -9 5 3 15 3 22 -1 17 -11 -18 -22 -67 -23 -22 -1 -55 -10 -73
-21 -20 -12 -50 -20 -77 -20 -33 0 -45 -4 -45 -15 0 -8 -7 -15 -15 -15 -11 0
-15 11 -15 40 0 22 -5 40 -11 40 -7 0 -10 -17 -7 -44 3 -41 1 -45 -22 -50 -14
-3 -39 0 -56 6 -32 11 -69 5 -60 -10 2 -4 -7 -9 -22 -10 -15 -1 -28 -7 -30
-12 -6 -16 -22 -12 -22 5 0 8 4 15 9 15 5 0 12 7 15 16 6 15 4 15 -20 -1 -19
-12 -29 -14 -37 -6 -14 14 -57 14 -57 1 0 -5 11 -10 25 -10 16 0 25 -6 25 -15
0 -17 -16 -21 -22 -5 -2 6 -20 5 -47 -2 -42 -11 -45 -10 -67 15 -13 15 -27 27
-33 27 -5 0 -11 6 -14 13 -2 7 -8 8 -13 3 -5 -5 -4 -11 4 -13 6 -3 12 -11 12
-19 0 -10 -12 -14 -40 -14 -22 0 -40 -5 -40 -10 0 -7 -6 -7 -20 0 -25 13 -60
-3 -61 -28 0 -10 -3 -12 -6 -4 -8 19 -73 16 -73 -4 0 -14 -7 -15 -37 -10 -21
3 -47 6 -57 6 -18 0 -18 2 4 24 13 15 20 32 17 40 -4 9 -2 16 3 16 6 0 10 -5
10 -11 0 -5 4 -8 9 -4 5 3 11 -3 14 -12 2 -10 4 -3 4 15 0 73 -80 46 -90 -29
l-4 -34 -1 36 c-2 44 -31 76 -34 38 0 -13 -1 -32 0 -41 1 -10 -5 -18 -13 -18
-8 0 -15 5 -15 10 0 14 -27 12 -33 -2 -4 -10 -8 -10 -14 -2 -8 11 -55 21 -121
27 -18 1 -36 8 -40 14 -4 7 -47 13 -102 16 -105 5 -134 13 -126 33 3 7 1 16
-4 19 -6 4 -10 -1 -10 -10 0 -12 -5 -15 -16 -11 -9 3 -49 16 -90 29 -59 17
-76 27 -80 45 -7 25 -15 27 -32 10 -9 -9 -16 -8 -30 5 -13 12 -21 14 -29 6
-13 -13 -33 -3 -33 16 0 17 40 29 67 21 27 -8 18 -18 162 171 34 45 78 93 97
108 19 14 34 33 34 41 0 11 8 14 33 10 17 -3 136 -15 262 -25z m-2835 -26 c0
-31 -1 -31 -28 -2 l-21 23 24 2 c20 1 25 -3 25 -23z m1126 -202 c-7 -7 -26 7
-26 19 0 6 6 6 15 -2 9 -7 13 -15 11 -17z m284 -25 c0 -27 -19 -63 -20 -38 0
8 -3 25 -6 38 -5 16 -2 22 10 22 10 0 16 -8 16 -22z m60 10 c0 -7 -7 -22 -15
-32 -12 -16 -15 -17 -15 -4 0 9 -3 23 -6 32 -4 12 0 16 15 16 12 0 21 -6 21
-12z m-964 -18 c33 -12 76 -34 95 -49 l34 -29 -27 -7 c-16 -4 -28 -12 -28 -17
0 -6 11 -7 28 -4 l27 7 -24 -17 c-19 -14 -25 -14 -32 -3 -13 22 -11 30 11 36
11 3 20 8 20 12 0 17 -106 65 -122 55 -4 -3 -15 2 -24 10 -17 17 -54 22 -54 7
0 -5 10 -12 23 -14 13 -3 7 -5 -16 -6 -23 0 -36 3 -32 9 3 6 -1 10 -9 10 -8 0
-18 5 -21 10 -11 18 88 11 151 -10z m1624 -17 c44 -42 52 -60 18 -41 -13 7
-27 11 -32 10 -12 -4 -37 19 -30 29 8 14 -6 10 -22 -5 -16 -17 -19 -30 -4 -21
6 3 10 2 10 -4 0 -17 -22 -24 -30 -11 -13 21 18 79 43 80 4 0 25 -17 47 -37z
m-1776 12 c18 -14 16 -15 -30 -14 -38 0 -45 2 -29 10 14 6 -2 8 -50 4 -47 -3
-65 -1 -55 5 24 15 142 12 164 -5z m-164 -18 c12 -4 11 -6 -3 -6 -10 -1 -16
-4 -14 -8 3 -5 -9 -9 -26 -10 l-32 -2 30 15 c26 12 27 14 5 9 -14 -2 -33 -5
-42 -5 -10 0 -15 -6 -13 -12 3 -7 -4 -24 -15 -38 -11 -14 -20 -20 -20 -14 0 6
7 17 15 24 20 17 19 31 -2 24 -14 -4 -13 -3 2 8 27 18 89 36 95 28 3 -4 12
-10 20 -13z m60 4 c0 -6 15 -12 33 -14 l32 -4 -31 -1 c-18 -1 -37 5 -44 13 -9
10 -9 15 -1 15 6 0 11 -4 11 -9z m1456 -65 c12 -4 31 -15 42 -24 20 -18 20
-18 -14 -19 -19 -1 -37 4 -40 9 -4 6 2 7 17 3 21 -7 22 -6 10 9 -17 21 -38 20
-50 -1 -5 -10 -13 -14 -18 -9 -4 5 -2 11 5 13 19 7 14 27 -13 53 -14 13 -25
28 -25 34 1 6 15 -5 33 -25 18 -20 42 -39 53 -43z m-1201 54 c4 -6 -14 -9 -47
-8 l-53 1 45 7 c25 4 46 8 47 8 1 1 5 -2 8 -8z m-121 -10 c-7 -7 -19 -7 -35
-1 -23 9 -22 10 11 10 23 1 31 -2 24 -9z m4009 -1 c-8 -8 -19 -8 -40 -1 -28
10 -28 10 12 11 28 1 36 -2 28 -10z m-3403 -9 c12 -8 10 -10 -8 -10 -18 0 -22
-4 -18 -17 6 -21 -9 -51 -21 -40 -4 5 -1 12 6 16 7 5 9 11 4 14 -12 8 -46 -20
-38 -32 3 -7 0 -8 -9 -5 -11 4 -16 0 -16 -10 0 -14 -2 -14 -14 -4 -11 11 -5
18 35 46 27 18 49 37 49 42 0 13 11 12 30 0z m3550 -1 c0 -8 -90 -2 -99 7 -3
2 19 4 47 3 29 -1 52 -6 52 -10z m-4201 -26 c-1 -22 -2 -23 -6 -8 -3 11 -10
23 -17 27 -7 5 -5 8 7 8 12 0 17 -7 16 -27z m4256 2 c17 -14 26 -25 20 -25 -5
0 -23 11 -40 25 -16 13 -25 24 -20 24 6 0 24 -11 40 -24z m-4549 -18 c-1 -16
-7 -23 -20 -23 -11 1 -20 -7 -22 -19 -2 -11 -8 -21 -14 -23 -6 -2 -23 -16 -37
-31 -40 -42 -13 2 40 63 27 31 50 56 52 56 1 0 2 -10 1 -23z m251 3 c14 -11
22 -20 18 -20 -4 0 -18 9 -32 20 -14 11 -22 20 -18 20 4 0 18 -9 32 -20z
m1733 16 c0 -3 -4 -8 -10 -11 -5 -3 -10 -1 -10 4 0 6 5 11 10 11 6 0 10 -2 10
-4z m60 -6 c0 -5 -7 -10 -16 -10 -8 0 -12 5 -9 10 3 6 10 10 16 10 5 0 9 -4 9
-10z m-1700 -20 c-6 -11 -13 -20 -15 -20 -3 0 -5 9 -5 20 0 11 7 20 15 20 13
0 14 -4 5 -20z m728 13 c-10 -2 -28 -2 -40 0 -13 2 -5 4 17 4 22 1 32 -1 23
-4z m3162 -13 c12 -8 11 -10 -7 -10 -13 0 -23 5 -23 10 0 13 11 13 30 0z
m-3591 -21 c13 -11 21 -23 17 -27 -4 -4 -12 1 -17 11 -6 9 -17 17 -24 17 -8 0
-15 5 -15 10 0 15 12 12 39 -11z m3967 6 c9 -8 11 -15 6 -15 -5 0 -15 7 -22
15 -7 8 -9 15 -6 15 4 0 14 -7 22 -15z m-2652 -3 c2 -4 -4 -8 -14 -8 -10 0
-16 4 -14 8 3 4 9 8 14 8 5 0 11 -4 14 -8z m93 -8 c-3 -3 -12 -4 -19 -1 -8 3
-5 6 6 6 11 1 17 -2 13 -5z m2603 -13 c0 -5 10 -11 22 -14 12 -4 19 -9 16 -12
-3 -4 -16 -1 -28 5 -12 7 -31 10 -41 7 -10 -3 -19 -1 -19 3 0 7 17 15 43 19 4
0 7 -3 7 -8z m-3860 -21 c-27 -21 -40 -25 -40 -12 0 8 38 29 55 31 6 0 -1 -8
-15 -19z m1122 -2 c-7 -7 -12 -8 -12 -2 0 14 12 26 19 19 2 -3 -1 -11 -7 -17z
m-1225 -21 c2 -17 1 -19 -7 -7 -11 17 -14 47 -3 36 4 -3 8 -17 10 -29z m1263
12 c0 -5 -4 -9 -10 -9 -5 0 -10 7 -10 16 0 8 5 12 10 9 6 -3 10 -10 10 -16z
m-170 -5 c0 -8 -4 -12 -10 -9 -5 3 -10 10 -10 16 0 5 5 9 10 9 6 0 10 -7 10
-16z m-1130 -4 c0 -5 -2 -10 -4 -10 -3 0 -8 5 -11 10 -3 6 -1 10 4 10 6 0 11
-4 11 -10z m1100 -10 c11 -11 16 -20 12 -20 -5 0 -17 9 -27 20 -10 11 -15 20
-12 20 4 0 16 -9 27 -20z m-1810 1 c0 -5 -7 -11 -14 -14 -10 -4 -13 -1 -9 9 6
15 23 19 23 5z m800 -1 c0 -5 -2 -10 -4 -10 -3 0 -8 5 -11 10 -3 6 -1 10 4 10
6 0 11 -4 11 -10z m3960 0 c0 -5 -5 -10 -11 -10 -5 0 -7 5 -4 10 3 6 8 10 11
10 2 0 4 -4 4 -10z m-2983 -16 c-3 -3 -12 -4 -19 -1 -8 3 -5 6 6 6 11 1 17 -2
13 -5z m-1862 -54 c-16 -16 -31 -27 -34 -24 -6 6 52 63 58 58 3 -2 -8 -18 -24
-34z m3145 15 c0 -12 -19 -12 -23 0 -4 9 -1 12 9 8 7 -3 14 -7 14 -8z m1730 0
c7 -9 8 -15 2 -15 -5 0 -12 7 -16 15 -3 8 -4 15 -2 15 2 0 9 -7 16 -15z
m-4855 -34 c-3 -6 -11 -11 -16 -11 -5 0 -4 6 3 14 14 16 24 13 13 -3z m4835
11 c0 -4 -9 -13 -20 -20 -19 -12 -20 -11 -8 8 13 20 28 27 28 12z m-1443 -28
c-3 -3 -12 -4 -19 -1 -8 3 -5 6 6 6 11 1 17 -2 13 -5z m1383 -8 c0 -2 -7 -7
-16 -10 -8 -3 -12 -2 -9 4 6 10 25 14 25 6z m-4820 -32 c0 -8 -4 -12 -10 -9
-5 3 -10 10 -10 16 0 5 5 9 10 9 6 0 10 -7 10 -16z m-366 -29 c-4 -8 -8 -15
-10 -15 -2 0 -4 7 -4 15 0 8 4 15 10 15 5 0 7 -7 4 -15z m380 -21 c3 -8 2 -12
-4 -9 -6 3 -10 10 -10 16 0 14 7 11 14 -7z m-597 -20 c-3 -3 -12 -4 -19 -1 -8
3 -5 6 6 6 11 1 17 -2 13 -5z m4108 -74 c3 -5 13 -6 23 -3 16 6 16 6 -1 -11
-9 -10 -15 -21 -13 -24 2 -4 -6 -8 -19 -8 -38 -3 -41 51 -3 55 4 1 9 -3 13 -9z
m-4468 -156 c-3 -3 -12 -4 -19 -1 -8 3 -5 6 6 6 11 1 17 -2 13 -5z m4297 -348
c-8 -21 -44 -21 -44 -1 0 9 5 22 12 29 16 17 41 -5 32 -28z"/>
<path d="M16240 7190 c0 -5 18 -10 40 -10 22 0 40 5 40 10 0 6 -18 10 -40 10
-22 0 -40 -4 -40 -10z"/>
<path d="M13360 7160 c0 -11 4 -20 9 -20 5 0 11 9 14 20 3 13 0 20 -9 20 -8 0
-14 -9 -14 -20z"/>
<path d="M16130 7156 c0 -8 7 -16 15 -20 10 -4 15 1 15 14 0 11 -7 20 -15 20
-8 0 -15 -6 -15 -14z"/>
<path d="M13362 7083 c-1 -31 -6 -43 -17 -43 -11 0 -15 -11 -15 -39 0 -22 -6
-42 -12 -45 -7 -3 1 -3 17 1 17 3 31 7 33 8 2 1 1 38 -1 81 -1 44 -4 60 -5 37z"/>
<path d="M13430 7080 c0 -35 3 -40 22 -40 21 0 21 0 2 14 -19 15 -19 15 0 29
19 14 19 15 -2 26 -21 11 -22 10 -22 -29z"/>
<path d="M16231 7102 c-15 -28 -2 -62 23 -62 20 1 20 2 4 14 -10 7 -18 19 -18
26 0 7 8 19 18 26 16 12 16 13 0 14 -10 0 -22 -8 -27 -18z"/>
<path d="M13680 7074 c0 -8 5 -12 10 -9 6 3 10 10 10 16 0 5 -4 9 -10 9 -5 0
-10 -7 -10 -16z"/>
<path d="M16598 7074 c-11 -10 3 -34 19 -34 8 0 13 7 11 17 -3 18 -20 27 -30
17z"/>
<path d="M13400 7000 c0 -22 5 -40 10 -40 6 0 10 18 10 40 0 22 -4 40 -10 40
-5 0 -10 -18 -10 -40z"/>
<path d="M16423 7028 c2 -7 10 -13 17 -13 7 0 15 6 18 13 2 7 -5 12 -18 12
-13 0 -20 -5 -17 -12z"/>
<path d="M13260 7005 c0 -8 5 -15 10 -15 6 0 10 7 10 15 0 8 -4 15 -10 15 -5
0 -10 -7 -10 -15z"/>
<path d="M16400 6976 c0 -9 5 -16 10 -16 6 0 10 4 10 9 0 6 -4 13 -10 16 -5 3
-10 -1 -10 -9z"/>
<path d="M13563 6973 c-24 -2 -43 -7 -43 -11 0 -13 83 -7 88 6 2 6 2 11 0 10
-1 -1 -22 -3 -45 -5z"/>
<path d="M13206 6964 c6 -3 9 -15 7 -28 -3 -13 1 -27 7 -31 15 -9 30 13 23 33
-3 8 0 18 8 23 10 6 3 8 -21 8 -19 0 -30 -3 -24 -5z"/>
<path d="M13265 6941 c-4 -12 -3 -27 3 -33 13 -13 21 11 12 37 -7 19 -7 19
-15 -4z"/>
<path d="M16352 6938 c2 -15 11 -24 26 -26 24 -4 30 16 10 36 -20 20 -40 14
-36 -10z"/>
<path d="M16417 6953 c-11 -10 -8 -41 4 -49 15 -9 28 13 22 37 -5 20 -15 24
-26 12z"/>
<path d="M13545 6920 c-3 -5 1 -10 10 -10 9 0 13 5 10 10 -3 6 -8 10 -10 10
-2 0 -7 -4 -10 -10z"/>
<path d="M16791 6790 c0 -8 4 -24 9 -35 5 -13 9 -14 9 -5 0 8 -4 24 -9 35 -5
13 -9 14 -9 5z"/>
<path d="M16497 6776 c-6 -15 1 -26 15 -26 11 0 10 27 -1 34 -5 3 -11 0 -14
-8z"/>
<path d="M16552 6770 c0 -14 2 -19 5 -12 2 6 2 18 0 25 -3 6 -5 1 -5 -13z"/>
<path d="M12800 6600 c0 -28 2 -30 40 -30 38 0 40 2 40 30 0 28 -2 30 -40 30
-38 0 -40 -2 -40 -30z"/>
<path d="M16560 6524 c0 -8 5 -12 10 -9 6 4 8 11 5 16 -9 14 -15 11 -15 -7z"/>
<path d="M12880 6519 c0 -5 5 -7 10 -4 6 3 10 8 10 11 0 2 -4 4 -10 4 -5 0
-10 -5 -10 -11z"/>
<path d="M12855 6470 c3 -5 10 -10 16 -10 5 0 9 5 9 10 0 6 -7 10 -16 10 -8 0
-12 -4 -9 -10z"/>
<path d="M12900 6459 c0 -18 2 -19 15 -9 8 7 15 16 15 21 0 5 -7 9 -15 9 -9 0
-15 -9 -15 -21z"/>
<path d="M12800 6440 c0 -13 5 -20 13 -17 6 2 12 10 12 17 0 7 -6 15 -12 18
-8 2 -13 -5 -13 -18z"/>
<path d="M12870 6418 c-23 -9 -24 -10 -7 -20 13 -7 22 -7 29 0 18 18 5 30 -22
20z"/>
<path d="M17070 6393 c0 -5 5 -15 10 -23 8 -12 10 -11 10 8 0 12 -4 22 -10 22
-5 0 -10 -3 -10 -7z"/>
<path d="M16990 6381 c0 -6 9 -16 20 -24 12 -8 20 -18 19 -23 -1 -5 -1 -19 0
-32 l1 -23 27 25 c15 14 24 28 20 32 -4 4 -7 2 -7 -4 0 -7 -7 -12 -15 -12 -10
0 -15 10 -15 29 0 17 -6 31 -16 35 -22 9 -34 7 -34 -3z"/>
<path d="M12830 6360 c0 -5 5 -10 10 -10 6 0 10 5 10 10 0 6 -4 10 -10 10 -5
0 -10 -4 -10 -10z"/>
<path d="M17106 6299 c-15 -15 -17 -22 -8 -31 9 -9 15 -7 27 8 15 20 20 44 8
43 -5 0 -17 -9 -27 -20z"/>
<path d="M17180 6306 c0 -8 5 -18 10 -21 6 -3 10 3 10 14 0 12 -4 21 -10 21
-5 0 -10 -6 -10 -14z"/>
<path d="M17150 6250 c0 -5 5 -10 10 -10 6 0 10 5 10 10 0 6 -4 10 -10 10 -5
0 -10 -4 -10 -10z"/>
<path d="M17043 6236 c5 -16 27 -19 27 -3 0 7 -7 14 -15 14 -9 0 -14 -5 -12
-11z"/>
<path d="M17358 6243 c7 -3 16 -2 19 1 4 3 -2 6 -13 5 -11 0 -14 -3 -6 -6z"/>
<path d="M17107 6213 c-3 -5 -1 -17 4 -28 7 -17 8 -17 8 8 1 27 -4 34 -12 20z"/>
<path d="M12802 6190 c0 -14 2 -19 5 -12 2 6 2 18 0 25 -3 6 -5 1 -5 -13z"/>
<path d="M17121 6144 c0 -11 3 -14 6 -6 3 7 2 16 -1 19 -3 4 -6 -2 -5 -13z"/>
<path d="M17160 6153 c0 -5 5 -15 10 -23 8 -12 10 -11 10 8 0 12 -4 22 -10 22
-5 0 -10 -3 -10 -7z"/>
<path d="M17228 6148 c9 -9 15 -9 24 0 9 9 7 12 -12 12 -19 0 -21 -3 -12 -12z"/>
<path d="M11962 6134 c4 -21 22 -23 26 -1 2 10 -3 17 -13 17 -10 0 -15 -6 -13
-16z"/>
<path d="M11920 6090 c0 -5 5 -10 11 -10 5 0 7 5 4 10 -3 6 -8 10 -11 10 -2 0
-4 -4 -4 -10z"/>
<path d="M11960 6090 c0 -5 7 -10 16 -10 8 0 12 5 9 10 -3 6 -10 10 -16 10 -5
0 -9 -4 -9 -10z"/>
<path d="M11680 6082 c0 -5 14 -7 30 -4 17 2 30 6 30 8 0 2 -13 4 -30 4 -16 0
-30 -4 -30 -8z"/>
<path d="M11111 6038 c1 -28 3 -34 6 -18 3 14 11 29 19 33 20 12 17 27 -6 27
-17 0 -20 -6 -19 -42z"/>
<path d="M11202 6062 c-1 -13 -14 -34 -29 -48 l-28 -26 29 8 c26 6 27 5 15
-14 -7 -12 -9 -25 -5 -29 5 -4 11 -2 13 5 3 7 22 12 44 12 27 0 39 4 39 14 0
8 6 16 13 19 9 3 9 7 0 18 -6 8 -13 25 -16 39 -3 16 -5 10 -6 -17 -1 -41 -3
-43 -30 -43 -28 0 -30 3 -34 43 -2 23 -4 32 -5 19z"/>
<path d="M11303 6068 c2 -7 10 -13 17 -13 7 0 15 6 18 13 2 7 -5 12 -18 12
-13 0 -20 -5 -17 -12z"/>
<path d="M12160 6069 c0 -5 5 -7 10 -4 6 3 10 8 10 11 0 2 -4 4 -10 4 -5 0
-10 -5 -10 -11z"/>
<path d="M11700 6040 c0 -13 7 -20 20 -20 13 0 20 7 20 20 0 13 -7 20 -20 20
-13 0 -20 -7 -20 -20z"/>
<path d="M11895 6050 c-7 -12 2 -30 16 -30 5 0 9 9 9 20 0 21 -15 27 -25 10z"/>
<path d="M12112 6048 c5 -15 48 -24 48 -10 0 10 -23 22 -42 22 -5 0 -8 -6 -6
-12z"/>
<path d="M12184 6049 c-10 -17 13 -36 27 -22 12 12 4 33 -11 33 -5 0 -12 -5
-16 -11z"/>
<path d="M11973 6034 c-7 -20 10 -50 26 -46 7 1 21 -2 31 -8 16 -9 20 -7 20 5
0 10 -9 15 -26 15 -23 0 -25 3 -20 25 5 19 2 25 -9 25 -9 0 -18 -7 -22 -16z"/>
<path d="M11346 6021 c-4 -7 -5 -15 -2 -18 9 -9 19 4 14 18 -4 11 -6 11 -12 0z"/>
<path d="M10880 5999 c0 -16 -5 -20 -20 -16 -26 7 -47 -18 -31 -37 7 -8 21
-12 31 -9 11 3 20 0 20 -6 0 -6 7 -11 15 -11 16 0 21 52 9 84 -9 23 -24 20
-24 -5z"/>
<path d="M11840 6010 c0 -5 7 -10 16 -10 8 0 12 5 9 10 -3 6 -10 10 -16 10 -5
0 -9 -4 -9 -10z"/>
<path d="M12160 6010 c0 -5 5 -10 11 -10 5 0 7 5 4 10 -3 6 -8 10 -11 10 -2 0
-4 -4 -4 -10z"/>
<path d="M12225 6010 c-3 -5 -1 -10 4 -10 6 0 11 5 11 10 0 6 -2 10 -4 10 -3
0 -8 -4 -11 -10z"/>
<path d="M11757 5994 c2 -7 11 -10 19 -7 19 7 18 10 -5 16 -13 3 -18 1 -14 -9z"/>
<path d="M10340 5960 c0 -22 5 -40 10 -40 6 0 10 18 10 40 0 22 -4 40 -10 40
-5 0 -10 -18 -10 -40z"/>
<path d="M10393 5960 c0 -25 2 -35 4 -22 2 12 2 32 0 45 -2 12 -4 2 -4 -23z"/>
<path d="M11601 5984 c0 -11 3 -14 6 -6 3 7 2 16 -1 19 -3 4 -6 -2 -5 -13z"/>
<path d="M11640 5993 c0 -5 5 -15 10 -23 8 -12 10 -11 10 8 0 12 -4 22 -10 22
-5 0 -10 -3 -10 -7z"/>
<path d="M11708 5988 c9 -9 15 -9 24 0 9 9 7 12 -12 12 -19 0 -21 -3 -12 -12z"/>
<path d="M11920 5989 c0 -5 5 -7 10 -4 6 3 10 8 10 11 0 2 -4 4 -10 4 -5 0
-10 -5 -10 -11z"/>
<path d="M11516 5974 c-9 -22 -8 -23 14 -17 23 6 26 19 6 26 -8 3 -17 -1 -20
-9z"/>
<path d="M10960 5970 c0 -5 18 -10 40 -10 22 0 40 5 40 10 0 6 -18 10 -40 10
-22 0 -40 -4 -40 -10z"/>
<path d="M12118 5973 c29 -3 42 -9 42 -19 0 -12 4 -12 20 -4 34 18 13 30 -48
28 -50 -1 -52 -2 -14 -5z"/>
<path d="M12305 5930 c-3 -5 -1 -10 4 -10 6 0 11 5 11 10 0 6 -2 10 -4 10 -3
0 -8 -4 -11 -10z"/>
<path d="M17600 5911 c0 -17 2 -31 4 -31 8 0 13 51 5 56 -5 3 -9 -9 -9 -25z"/>
<path d="M17669 5936 c-3 -4 -4 -17 -2 -30 4 -20 12 -25 46 -28 63 -5 127 2
127 14 0 7 -26 8 -79 3 l-79 -7 -4 27 c-2 15 -6 24 -9 21z"/>
<path d="M10978 5923 c12 -2 32 -2 45 0 12 2 2 4 -23 4 -25 0 -35 -2 -22 -4z"/>
<path d="M9901 5913 c0 -5 4 -17 9 -28 8 -18 9 -17 9 8 1 15 -3 27 -9 27 -5 0
-10 -3 -9 -7z"/>
<path d="M10000 5910 c0 -5 7 -7 15 -4 8 4 15 8 15 10 0 2 -7 4 -15 4 -8 0
-15 -4 -15 -10z"/>
<path d="M17520 5900 c0 -16 4 -18 22 -11 32 12 34 31 4 31 -19 0 -26 -5 -26
-20z"/>
<path d="M10095 5890 c-4 -6 7 -10 25 -10 18 0 29 4 25 10 -3 6 -15 10 -25 10
-10 0 -22 -4 -25 -10z"/>
<path d="M10640 5885 c0 -11 11 -15 40 -15 29 0 40 4 40 15 0 11 -11 15 -40
15 -29 0 -40 -4 -40 -15z"/>
<path d="M9618 5883 c12 -2 32 -2 45 0 12 2 2 4 -23 4 -25 0 -35 -2 -22 -4z"/>
<path d="M11230 5880 c0 -5 5 -10 10 -10 6 0 10 5 10 10 0 6 -4 10 -10 10 -5
0 -10 -4 -10 -10z"/>
<path d="M11170 5870 c0 -5 7 -10 15 -10 8 0 15 5 15 10 0 6 -7 10 -15 10 -8
0 -15 -4 -15 -10z"/>
<path d="M18331 5858 c0 -9 -4 -25 -7 -35 -5 -17 -5 -17 6 0 6 10 9 25 7 35
-4 15 -5 15 -6 0z"/>
<path d="M9618 5853 c12 -2 32 -2 45 0 12 2 2 4 -23 4 -25 0 -35 -2 -22 -4z"/>
<path d="M10065 5840 c19 -8 103 -14 94 -6 -2 2 -29 6 -59 9 -34 3 -47 2 -35
-3z"/>
<path d="M11128 5843 c7 -3 16 -2 19 1 4 3 -2 6 -13 5 -11 0 -14 -3 -6 -6z"/>
<path d="M9140 5820 c0 -11 5 -20 10 -20 6 0 10 9 10 20 0 11 -4 20 -10 20 -5
0 -10 -9 -10 -20z"/>
<path d="M9192 5820 c0 -14 2 -19 5 -12 2 6 2 18 0 25 -3 6 -5 1 -5 -13z"/>
<path d="M9214 5824 c3 -9 6 -18 6 -20 0 -12 39 -2 44 12 9 23 8 24 -25 24
-24 0 -30 -3 -25 -16z"/>
<path d="M9910 5829 c0 -5 5 -7 10 -4 6 3 10 8 10 11 0 2 -4 4 -10 4 -5 0 -10
-5 -10 -11z"/>
<path d="M10188 5828 c9 -9 15 -9 24 0 9 9 7 12 -12 12 -19 0 -21 -3 -12 -12z"/>
<path d="M10320 5830 c0 -5 5 -10 10 -10 6 0 10 5 10 10 0 6 -4 10 -10 10 -5
0 -10 -4 -10 -10z"/>
<path d="M17460 5829 c0 -5 5 -7 10 -4 6 3 10 8 10 11 0 2 -4 4 -10 4 -5 0
-10 -5 -10 -11z"/>
<path d="M17508 5810 c2 -16 6 -30 8 -30 2 0 4 14 4 30 0 17 -4 30 -8 30 -5 0
-7 -13 -4 -30z"/>
<path d="M17600 5825 c0 -8 4 -15 9 -15 5 0 11 7 15 15 3 9 0 15 -9 15 -8 0
-15 -7 -15 -15z"/>
<path d="M17878 5818 c23 -23 39 -20 29 7 -4 8 -17 15 -29 15 l-22 0 22 -22z"/>
<path d="M9282 5793 l-2 -43 38 0 c30 0 39 5 49 25 6 14 8 27 3 30 -11 7 -20
-6 -20 -27 0 -13 -8 -18 -29 -18 -27 0 -30 4 -34 38 l-4 37 -1 -42z"/>
<path d="M17842 5810 c0 -14 2 -19 5 -12 2 6 2 18 0 25 -3 6 -5 1 -5 -13z"/>
<path d="M8960 5801 c0 -25 6 -27 13 -6 4 8 2 17 -3 20 -6 4 -10 -3 -10 -14z"/>
<path d="M9431 5807 c-9 -11 -8 -17 3 -26 10 -9 15 -8 19 2 9 23 -8 41 -22 24z"/>
<path d="M9485 5808 c-9 -22 4 -43 17 -30 7 7 7 16 0 29 -10 17 -11 17 -17 1z"/>
<path d="M17725 5811 c-3 -6 4 -15 15 -21 17 -9 20 -8 20 10 0 20 -24 28 -35
11z"/>
<path d="M9550 5781 c0 -11 -8 -22 -17 -24 -11 -3 -7 -5 10 -6 22 -1 27 3 27
24 0 14 -4 25 -10 25 -5 0 -10 -9 -10 -19z"/>
<path d="M9618 5793 c12 -2 32 -2 45 0 12 2 2 4 -23 4 -25 0 -35 -2 -22 -4z"/>
<path d="M17923 5775 c0 -8 5 -15 11 -15 16 0 -6 -17 -29 -23 -13 -3 -9 -5 12
-6 38 -1 48 11 33 39 -13 24 -27 26 -27 5z"/>
<path d="M9385 5770 c-3 -5 3 -10 15 -10 12 0 18 5 15 10 -3 6 -10 10 -15 10
-5 0 -12 -4 -15 -10z"/>
<path d="M8883 5720 c0 -25 2 -35 4 -22 2 12 2 32 0 45 -2 12 -4 2 -4 -23z"/>
<path d="M8920 5715 c0 -25 5 -45 10 -45 6 0 10 20 10 45 0 25 -4 45 -10 45
-5 0 -10 -20 -10 -45z"/>
<path d="M9010 5756 c0 -2 7 -6 15 -10 8 -3 15 -1 15 4 0 6 -7 10 -15 10 -8 0
-15 -2 -15 -4z"/>
<path d="M9138 5753 c12 -2 32 -2 45 0 12 2 2 4 -23 4 -25 0 -35 -2 -22 -4z"/>
<path d="M17490 5751 c-20 -5 -22 -8 -9 -13 9 -4 20 -3 25 2 5 5 23 10 39 13
l30 4 -30 1 c-16 0 -41 -3 -55 -7z"/>
<path d="M17788 5753 c18 -2 45 -2 60 0 15 2 0 4 -33 4 -33 0 -45 -2 -27 -4z"/>
<path d="M18266 5751 c-4 -7 -5 -15 -2 -18 9 -9 19 4 14 18 -4 11 -6 11 -12 0z"/>
<path d="M8720 5719 c0 -11 4 -18 10 -14 5 3 7 12 3 20 -7 21 -13 19 -13 -6z"/>
<path d="M8787 5725 c-4 -8 -2 -17 3 -20 6 -4 10 3 10 14 0 25 -6 27 -13 6z"/>
<path d="M8320 5700 c0 -11 5 -20 10 -20 6 0 10 -18 10 -40 0 -22 5 -40 10
-40 6 0 10 18 10 40 0 57 27 55 33 -2 3 -34 4 -30 5 20 l2 62 -40 0 c-33 0
-40 -3 -40 -20z"/>
<path d="M8560 5696 c0 -9 5 -16 10 -16 6 0 10 4 10 9 0 6 -4 13 -10 16 -5 3
-10 -1 -10 -9z"/>
<path d="M8626 5701 c-4 -7 -5 -15 -2 -18 9 -9 19 4 14 18 -4 11 -6 11 -12 0z"/>
<path d="M17925 5700 c4 -6 11 -8 16 -5 14 9 11 15 -7 15 -8 0 -12 -5 -9 -10z"/>
<path d="M8740 5690 c0 -5 9 -10 20 -10 11 0 20 5 20 10 0 6 -9 10 -20 10 -11
0 -20 -4 -20 -10z"/>
<path d="M8960 5690 c0 -6 7 -10 15 -10 8 0 15 2 15 4 0 2 -7 6 -15 10 -8 3
-15 1 -15 -4z"/>
<path d="M9138 5683 c12 -2 32 -2 45 0 12 2 2 4 -23 4 -25 0 -35 -2 -22 -4z"/>
<path d="M17530 5670 c8 -5 20 -10 25 -10 6 0 3 5 -5 10 -8 5 -19 10 -25 10
-5 0 -3 -5 5 -10z"/>
<path d="M17902 5663 c6 -7 14 -10 19 -7 15 9 10 20 -10 20 -15 0 -17 -3 -9
-13z"/>
<path d="M8952 5640 c0 -14 2 -19 5 -12 2 6 2 18 0 25 -3 6 -5 1 -5 -13z"/>
<path d="M9040 5630 c0 -5 18 -10 40 -10 22 0 40 5 40 10 0 6 -18 10 -40 10
-22 0 -40 -4 -40 -10z"/>
<path d="M9540 5629 c0 -5 5 -7 10 -4 6 3 10 8 10 11 0 2 -4 4 -10 4 -5 0 -10
-5 -10 -11z"/>
<path d="M8025 5570 c-3 -5 -1 -10 4 -10 6 0 11 5 11 10 0 6 -2 10 -4 10 -3 0
-8 -4 -11 -10z"/>
<path d="M8480 5560 c0 -19 3 -21 12 -12 9 9 9 15 0 24 -9 9 -12 7 -12 -12z"/>
<path d="M8120 5550 c-11 -7 -11 -10 -2 -10 7 0 10 -4 7 -10 -3 -5 3 -10 14
-10 14 0 19 6 18 20 -1 22 -14 25 -37 10z"/>
<path d="M8060 5530 c0 -5 5 -10 11 -10 5 0 7 5 4 10 -3 6 -8 10 -11 10 -2 0
-4 -4 -4 -10z"/>
<path d="M8240 5471 c0 -18 4 -30 9 -26 6 3 8 15 6 27 -7 34 -15 34 -15 -1z"/>
<path d="M8125 5480 c3 -5 8 -10 11 -10 2 0 4 5 4 10 0 6 -5 10 -11 10 -5 0
-7 -4 -4 -10z"/>
<path d="M7855 5669 c-15 -7 -11 -8 15 -3 24 3 31 2 21 -4 -11 -8 -10 -12 8
-21 18 -10 21 -9 21 8 0 28 -28 37 -65 20z"/>
<path d="M12316 3782 c-2 -4 4 -8 14 -8 10 0 16 4 14 8 -3 4 -9 8 -14 8 -5 0
-11 -4 -14 -8z"/>
<path d="M12460 3710 c0 -5 5 -10 10 -10 6 0 10 5 10 10 0 6 -4 10 -10 10 -5
0 -10 -4 -10 -10z"/>
<path d="M13036 3712 c-3 -5 1 -9 9 -9 8 0 12 4 9 9 -3 4 -7 8 -9 8 -2 0 -6
-4 -9 -8z"/>
<path d="M12617 3639 c7 -7 15 -10 18 -7 3 3 -2 9 -12 12 -14 6 -15 5 -6 -5z"/>
<path d="M13130 3621 c0 -10 19 -25 25 -20 1 2 -3 10 -11 17 -8 7 -14 8 -14 3z"/>
<path d="M11966 3594 c-9 -8 -16 -21 -16 -27 1 -7 6 -5 13 4 7 9 19 18 27 21
9 3 10 7 3 11 -6 4 -19 0 -27 -9z"/>
<path d="M12687 3587 c3 -5 12 -6 20 -3 11 5 13 2 9 -10 -5 -14 -4 -15 9 -4
22 19 18 26 -14 25 -16 0 -27 -4 -24 -8z"/>
<path d="M12770 3586 c0 -9 5 -16 10 -16 6 0 10 4 10 9 0 6 -4 13 -10 16 -5 3
-10 -1 -10 -9z"/>
<path d="M13140 3580 c0 -5 5 -10 11 -10 5 0 7 5 4 10 -3 6 -8 10 -11 10 -2 0
-4 -4 -4 -10z"/>
<path d="M12240 3560 c0 -19 3 -21 12 -12 9 9 9 15 0 24 -9 9 -12 7 -12 -12z"/>
<path d="M12745 3550 c4 -6 11 -8 16 -5 14 9 11 15 -7 15 -8 0 -12 -5 -9 -10z"/>
<path d="M11946 3539 c-15 -9 -16 -13 -5 -20 8 -5 21 -8 29 -8 10 0 9 3 -5 10
-17 8 -16 9 8 6 22 -4 25 -2 16 9 -14 17 -18 17 -43 3z"/>
<path d="M13120 3540 c0 -5 5 -10 11 -10 5 0 7 5 4 10 -3 6 -8 10 -11 10 -2 0
-4 -4 -4 -10z"/>
<path d="M12760 3520 c0 -5 5 -10 10 -10 6 0 10 5 10 10 0 6 -4 10 -10 10 -5
0 -10 -4 -10 -10z"/>
<path d="M12820 3515 c-7 -8 -9 -15 -6 -15 4 0 14 7 22 15 9 8 11 15 6 15 -5
0 -15 -7 -22 -15z"/>
<path d="M12860 3510 c-13 -8 -12 -10 3 -10 9 0 17 5 17 10 0 12 -1 12 -20 0z"/>
<path d="M13040 3505 c0 -11 -11 -15 -40 -15 -29 0 -40 -4 -40 -15 0 -11 11
-15 40 -15 27 0 40 4 40 14 0 7 9 16 20 19 11 3 20 10 20 16 0 6 -9 11 -20 11
-11 0 -20 -7 -20 -15z"/>
<path d="M12043 3503 c9 -2 23 -2 30 0 6 3 -1 5 -18 5 -16 0 -22 -2 -12 -5z"/>
<path d="M13292 3468 c8 -12 20 -23 27 -24 6 -1 7 0 1 3 -5 2 -10 11 -10 18 0
7 -7 16 -16 19 -15 6 -15 4 -2 -16z"/>
<path d="M13048 3443 c7 -3 16 -2 19 1 4 3 -2 6 -13 5 -11 0 -14 -3 -6 -6z"/>
<path d="M14130 3469 c0 -5 5 -7 10 -4 6 3 10 8 10 11 0 2 -4 4 -10 4 -5 0
-10 -5 -10 -11z"/>
<path d="M15532 3464 c-7 -8 -8 -14 -3 -14 10 0 25 19 20 25 -2 1 -10 -3 -17
-11z"/>
<path d="M15694 3405 c19 -14 19 -15 1 -15 -10 0 -16 -3 -12 -6 3 -4 18 -3 33
0 l27 7 -28 15 c-35 18 -46 18 -21 -1z"/>
<path d="M15360 3386 c0 -11 -14 -16 -57 -19 l-58 -3 56 -2 c38 -1 60 3 68 12
8 10 9 16 1 21 -5 3 -10 -1 -10 -9z"/>
<path d="M15760 3380 c-19 -4 -30 -8 -23 -9 7 0 10 -8 7 -16 -4 -8 -1 -15 5
-15 6 0 11 7 11 15 0 9 14 16 38 20 63 11 68 13 32 13 -19 -1 -51 -4 -70 -8z"/>
<path d="M15000 3360 c-18 -12 -2 -12 25 0 13 6 15 9 5 9 -8 0 -22 -4 -30 -9z"/>
<path d="M15458 3363 c12 -2 32 -2 45 0 12 2 2 4 -23 4 -25 0 -35 -2 -22 -4z"/>
<path d="M15828 3363 c12 -2 32 -2 45 0 12 2 2 4 -23 4 -25 0 -35 -2 -22 -4z"/>
<path d="M14397 3340 c6 -21 18 -26 28 -11 3 6 -3 15 -14 20 -16 9 -18 8 -14
-9z"/>
<path d="M14633 3320 c0 -25 2 -35 4 -22 2 12 2 32 0 45 -2 12 -4 2 -4 -23z"/>
<path d="M15123 3320 c0 -25 2 -35 4 -22 2 12 2 32 0 45 -2 12 -4 2 -4 -23z"/>
<path d="M15160 3320 c0 -22 5 -40 10 -40 6 0 10 18 10 40 0 22 -4 40 -10 40
-5 0 -10 -18 -10 -40z"/>
<path d="M14457 3344 c-8 -8 1 -24 14 -24 5 0 9 7 9 15 0 15 -12 20 -23 9z"/>
<path d="M15694 3328 c-8 -12 5 -28 22 -28 8 0 14 8 14 18 0 19 -26 26 -36 10z"/>
<path d="M14978 3303 c-10 -2 -18 -8 -18 -13 0 -5 -17 -11 -37 -13 -21 -2 -4
-2 37 0 71 5 89 8 79 17 -9 8 -45 13 -61 9z"/>
<path d="M14394 3289 c-9 -15 -2 -18 20 -9 17 6 18 7 3 13 -9 3 -19 2 -23 -4z"/>
<path d="M14460 3290 c-13 -8 -12 -10 3 -10 9 0 17 5 17 10 0 12 -1 12 -20 0z"/>
<path d="M14583 3268 c2 -7 10 -13 17 -13 7 0 15 6 18 13 2 7 -5 12 -18 12
-13 0 -20 -5 -17 -12z"/>
<path d="M14720 3270 c0 -5 5 -10 10 -10 6 0 10 5 10 10 0 6 -4 10 -10 10 -5
0 -10 -4 -10 -10z"/>
<path d="M14780 3270 c0 -5 5 -10 10 -10 6 0 10 5 10 10 0 6 -4 10 -10 10 -5
0 -10 -4 -10 -10z"/>
<path d="M15360 3250 c0 -29 2 -30 45 -30 43 0 45 1 45 30 0 29 -2 30 -45 30
-43 0 -45 -1 -45 -30z"/>
<path d="M15480 3250 c0 -16 5 -30 10 -30 6 0 10 14 10 30 0 17 -4 30 -10 30
-5 0 -10 -13 -10 -30z"/>
<path d="M15600 3270 c0 -5 18 -10 39 -10 22 0 43 5 46 10 4 6 -12 10 -39 10
-25 0 -46 -4 -46 -10z"/>
<path d="M14295 3261 c-3 -6 4 -15 15 -21 22 -12 23 -10 14 14 -7 18 -20 21
-29 7z"/>
<path d="M14750 3240 c0 -5 5 -10 10 -10 6 0 10 5 10 10 0 6 -4 10 -10 10 -5
0 -10 -4 -10 -10z"/>
<path d="M14880 3240 c0 -5 18 -10 40 -10 22 0 40 5 40 10 0 6 -18 10 -40 10
-22 0 -40 -4 -40 -10z"/>
<path d="M14560 3216 c0 -9 5 -16 10 -16 6 0 10 4 10 9 0 6 -4 13 -10 16 -5 3
-10 -1 -10 -9z"/>
<path d="M14626 3221 c-4 -7 -5 -15 -2 -18 9 -9 19 4 14 18 -4 11 -6 11 -12 0z"/>
<path d="M15033 3206 c-16 -19 -4 -29 13 -11 8 7 14 16 14 19 0 10 -15 6 -27
-8z"/>
<path d="M14877 3188 c-8 -29 -1 -36 8 -9 7 23 35 29 35 8 0 -7 10 -18 21 -25
21 -13 21 -12 15 15 -4 18 -3 23 2 14 6 -8 12 -9 16 -3 8 13 -17 22 -59 22
-25 0 -34 -5 -38 -22z"/>
<path d="M14653 3193 c-13 -4 -19 -33 -8 -33 3 0 15 9 27 20 21 19 12 26 -19
13z"/>
<path d="M14817 3151 c-4 -17 -3 -21 5 -13 5 5 8 16 6 23 -3 8 -7 3 -11 -10z"/>
</g>
</svg>
